<?xml version="1.0" encoding="utf-8" standalone="no"?>
<!DOCTYPE svg PUBLIC "-//W3C//DTD SVG 1.1//EN"
  "http://www.w3.org/Graphics/SVG/1.1/DTD/svg11.dtd">
<svg xmlns:xlink="http://www.w3.org/1999/xlink" width="238.423187pt" height="144.684pt" viewBox="0 0 238.423187 144.684" xmlns="http://www.w3.org/2000/svg" version="1.1">
 <metadata>
  <rdf:RDF xmlns:dc="http://purl.org/dc/elements/1.1/" xmlns:cc="http://creativecommons.org/ns#" xmlns:rdf="http://www.w3.org/1999/02/22-rdf-syntax-ns#">
   <cc:Work>
    <dc:type rdf:resource="http://purl.org/dc/dcmitype/StillImage"/>
    <dc:date>2026-09-10T02:42:19.914962</dc:date>
    <dc:format>image/svg+xml</dc:format>
    <dc:creator>
     <cc:Agent>
      <dc:title>Matplotlib v3.8.2, https://matplotlib.org/</dc:title>
     </cc:Agent>
    </dc:creator>
   </cc:Work>
  </rdf:RDF>
 </metadata>
 <defs>
  <style type="text/css">*{stroke-linejoin: round; stroke-linecap: butt}</style>
 </defs>
 <g id="figure_1">
  <g id="patch_1">
   <path d="M 0 144.684 
L 238.423187 144.684 
L 238.423187 0 
L 0 0 
z
" style="fill: #ffffff"/>
  </g>
  <g id="axes_1">
   <g id="patch_2">
    <path d="M 26.806794 40.32936 
L 103.810794 40.32936 
Q 105.350874 40.32936 105.350874 38.8404 
L 105.350874 15.5754 
Q 105.350874 14.08644 103.810794 14.08644 
L 26.806794 14.08644 
Q 25.266714 14.08644 25.266714 15.5754 
L 25.266714 38.8404 
Q 25.266714 40.32936 26.806794 40.32936 
z
" clip-path="url(#p1742ce56a7)" style="fill: #eaf2f8; stroke: #2166ac; stroke-width: 0.9; stroke-linejoin: miter"/>
   </g>
   <g id="patch_3">
    <path d="M 134.612394 40.32936 
L 211.616394 40.32936 
Q 213.156474 40.32936 213.156474 38.8404 
L 213.156474 15.5754 
Q 213.156474 14.08644 211.616394 14.08644 
L 134.612394 14.08644 
Q 133.072314 14.08644 133.072314 15.5754 
L 133.072314 38.8404 
Q 133.072314 40.32936 134.612394 40.32936 
z
" clip-path="url(#p1742ce56a7)" style="fill: #eaf2f8; stroke: #2166ac; stroke-width: 0.9; stroke-linejoin: miter"/>
   </g>
   <g id="patch_4">
    <path d="M 26.806794 83.13696 
L 103.810794 83.13696 
Q 105.350874 83.13696 105.350874 81.648 
L 105.350874 58.383 
Q 105.350874 56.89404 103.810794 56.89404 
L 26.806794 56.89404 
Q 25.266714 56.89404 25.266714 58.383 
L 25.266714 81.648 
Q 25.266714 83.13696 26.806794 83.13696 
z
" clip-path="url(#p1742ce56a7)" style="fill: #eaf2f8; stroke: #2166ac; stroke-width: 0.9; stroke-linejoin: miter"/>
   </g>
   <g id="patch_5">
    <path d="M 134.612394 83.13696 
L 211.616394 83.13696 
Q 213.156474 83.13696 213.156474 81.648 
L 213.156474 58.383 
Q 213.156474 56.89404 211.616394 56.89404 
L 134.612394 56.89404 
Q 133.072314 56.89404 133.072314 58.383 
L 133.072314 81.648 
Q 133.072314 83.13696 134.612394 83.13696 
z
" clip-path="url(#p1742ce56a7)" style="fill: #eaf2f8; stroke: #2166ac; stroke-width: 0.9; stroke-linejoin: miter"/>
   </g>
   <g id="patch_6">
    <path d="M 26.806794 125.94456 
L 103.810794 125.94456 
Q 105.350874 125.94456 105.350874 124.4556 
L 105.350874 101.1906 
Q 105.350874 99.70164 103.810794 99.70164 
L 26.806794 99.70164 
Q 25.266714 99.70164 25.266714 101.1906 
L 25.266714 124.4556 
Q 25.266714 125.94456 26.806794 125.94456 
z
" clip-path="url(#p1742ce56a7)" style="fill: #eaf2f8; stroke: #2166ac; stroke-width: 0.9; stroke-linejoin: miter"/>
   </g>
   <g id="patch_7">
    <path d="M 134.612394 125.94456 
L 211.616394 125.94456 
Q 213.156474 125.94456 213.156474 124.4556 
L 213.156474 101.1906 
Q 213.156474 99.70164 211.616394 99.70164 
L 134.612394 99.70164 
Q 133.072314 99.70164 133.072314 101.1906 
L 133.072314 124.4556 
Q 133.072314 125.94456 134.612394 125.94456 
z
" clip-path="url(#p1742ce56a7)" style="fill: #eaf2f8; stroke: #2166ac; stroke-width: 0.9; stroke-linejoin: miter"/>
   </g>
   <g id="patch_8">
    <path d="M 108.699448 27.11484 
Q 119.21289 27.11484 128.831905 27.11484 
" clip-path="url(#p1742ce56a7)" style="fill: none; stroke: #666666; stroke-width: 0.8; stroke-linecap: round"/>
    <path d="M 125.631905 25.51484 
L 128.831905 27.11484 
L 125.631905 28.71484 
z
" clip-path="url(#p1742ce56a7)" style="fill: #666666; stroke: #666666; stroke-width: 0.8; stroke-linecap: round"/>
   </g>
   <g id="patch_9">
    <path d="M 171.130544 40.9756 
Q 119.209487 48.146691 68.174447 55.19541 
" clip-path="url(#p1742ce56a7)" style="fill: none; stroke: #666666; stroke-width: 0.8; stroke-linecap: round"/>
    <path d="M 71.563262 56.342551 
L 68.174447 55.19541 
L 71.125449 53.172643 
z
" clip-path="url(#p1742ce56a7)" style="fill: #666666; stroke: #666666; stroke-width: 0.8; stroke-linecap: round"/>
   </g>
   <g id="patch_10">
    <path d="M 108.699448 69.92244 
Q 119.21289 69.92244 128.831905 69.92244 
" clip-path="url(#p1742ce56a7)" style="fill: none; stroke: #666666; stroke-width: 0.8; stroke-linecap: round"/>
    <path d="M 125.631905 68.32244 
L 128.831905 69.92244 
L 125.631905 71.52244 
z
" clip-path="url(#p1742ce56a7)" style="fill: #666666; stroke: #666666; stroke-width: 0.8; stroke-linecap: round"/>
   </g>
   <g id="patch_11">
    <path d="M 171.130544 83.7832 
Q 119.209487 90.954291 68.174447 98.00301 
" clip-path="url(#p1742ce56a7)" style="fill: none; stroke: #666666; stroke-width: 0.8; stroke-linecap: round"/>
    <path d="M 71.563262 99.150151 
L 68.174447 98.00301 
L 71.125449 95.980243 
z
" clip-path="url(#p1742ce56a7)" style="fill: #666666; stroke: #666666; stroke-width: 0.8; stroke-linecap: round"/>
   </g>
   <g id="patch_12">
    <path d="M 108.699448 112.73004 
Q 119.21289 112.73004 128.831905 112.73004 
" clip-path="url(#p1742ce56a7)" style="fill: none; stroke: #666666; stroke-width: 0.8; stroke-linecap: round"/>
    <path d="M 125.631905 111.13004 
L 128.831905 112.73004 
L 125.631905 114.33004 
z
" clip-path="url(#p1742ce56a7)" style="fill: #666666; stroke: #666666; stroke-width: 0.8; stroke-linecap: round"/>
   </g>
   <g id="text_1">
    <text style="font: 700 7px 'DejaVu Sans', 'Bitstream Vera Sans', 'Computer Modern Sans Serif', 'Lucida Grande', 'Verdana', 'Geneva', 'Lucid', 'Arial', 'Helvetica', 'Avant Garde', sans-serif; text-anchor: middle" x="65.308794" y="26.254603" transform="rotate(-0 65.308794 26.254603)">ECC semantics</text>
   </g>
   <g id="text_2">
    <text style="fill: #666666; font: 6.2px 'DejaVu Sans', 'Bitstream Vera Sans', 'Computer Modern Sans Serif', 'Lucida Grande', 'Verdana', 'Geneva', 'Lucid', 'Arial', 'Helvetica', 'Avant Garde', sans-serif; text-anchor: middle" x="65.308794" y="34.037013" transform="rotate(-0 65.308794 34.037013)">functional gate</text>
   </g>
   <g id="text_3">
    <text style="font: 700 7px 'DejaVu Sans', 'Bitstream Vera Sans', 'Computer Modern Sans Serif', 'Lucida Grande', 'Verdana', 'Geneva', 'Lucid', 'Arial', 'Helvetica', 'Avant Garde', sans-serif; text-anchor: middle" x="173.114394" y="26.227259" transform="rotate(-0 173.114394 26.227259)">Hardware identity</text>
   </g>
   <g id="text_4">
    <text style="fill: #666666; font: 6.2px 'DejaVu Sans', 'Bitstream Vera Sans', 'Computer Modern Sans Serif', 'Lucida Grande', 'Verdana', 'Geneva', 'Lucid', 'Arial', 'Helvetica', 'Avant Garde', sans-serif; text-anchor: middle" x="173.114394" y="34.037013" transform="rotate(-0 173.114394 34.037013)">interface + seed</text>
   </g>
   <g id="text_5">
    <text style="font: 700 7px 'DejaVu Sans', 'Bitstream Vera Sans', 'Computer Modern Sans Serif', 'Lucida Grande', 'Verdana', 'Geneva', 'Lucid', 'Arial', 'Helvetica', 'Avant Garde', sans-serif; text-anchor: middle" x="65.308794" y="69.034859" transform="rotate(-0 65.308794 69.034859)">Routed physical identity</text>
   </g>
   <g id="text_6">
    <text style="fill: #666666; font: 6.2px 'DejaVu Sans', 'Bitstream Vera Sans', 'Computer Modern Sans Serif', 'Lucida Grande', 'Verdana', 'Geneva', 'Lucid', 'Arial', 'Helvetica', 'Avant Garde', sans-serif; text-anchor: middle" x="65.308794" y="76.844613" transform="rotate(-0 65.308794 76.844613)">route + timing gate</text>
   </g>
   <g id="text_7">
    <text style="font: 700 7px 'DejaVu Sans', 'Bitstream Vera Sans', 'Computer Modern Sans Serif', 'Lucida Grande', 'Verdana', 'Geneva', 'Lucid', 'Arial', 'Helvetica', 'Avant Garde', sans-serif; text-anchor: middle" x="173.114394" y="69.062202" transform="rotate(-0 173.114394 69.062202)">Extracted parasitics</text>
   </g>
   <g id="text_8">
    <text style="fill: #666666; font: 6.2px 'DejaVu Sans', 'Bitstream Vera Sans', 'Computer Modern Sans Serif', 'Lucida Grande', 'Verdana', 'Geneva', 'Lucid', 'Arial', 'Helvetica', 'Avant Garde', sans-serif; text-anchor: middle" x="173.114394" y="76.844613" transform="rotate(-0 173.114394 76.844613)">final SPEF hash</text>
   </g>
   <g id="text_9">
    <text style="font: 700 7px 'DejaVu Sans', 'Bitstream Vera Sans', 'Computer Modern Sans Serif', 'Lucida Grande', 'Verdana', 'Geneva', 'Lucid', 'Arial', 'Helvetica', 'Avant Garde', sans-serif; text-anchor: middle" x="65.308794" y="111.842459" transform="rotate(-0 65.308794 111.842459)">Activity identity</text>
   </g>
   <g id="text_10">
    <text style="fill: #666666; font: 6.2px 'DejaVu Sans', 'Bitstream Vera Sans', 'Computer Modern Sans Serif', 'Lucida Grande', 'Verdana', 'Geneva', 'Lucid', 'Arial', 'Helvetica', 'Avant Garde', sans-serif; text-anchor: middle" x="65.308794" y="119.652212" transform="rotate(-0 65.308794 119.652212)">VCD + coverage gate</text>
   </g>
   <g id="text_11">
    <text style="font: 700 7px 'DejaVu Sans', 'Bitstream Vera Sans', 'Computer Modern Sans Serif', 'Lucida Grande', 'Verdana', 'Geneva', 'Lucid', 'Arial', 'Helvetica', 'Avant Garde', sans-serif; text-anchor: middle" x="173.114394" y="111.842459" transform="rotate(-0 173.114394 111.842459)">Qualified energy</text>
   </g>
   <g id="text_12">
    <text style="fill: #666666; font: 6.2px 'DejaVu Sans', 'Bitstream Vera Sans', 'Computer Modern Sans Serif', 'Lucida Grande', 'Verdana', 'Geneva', 'Lucid', 'Arial', 'Helvetica', 'Avant Garde', sans-serif; text-anchor: middle" x="173.114394" y="119.652212" transform="rotate(-0 173.114394 119.652212)">256-op normalization</text>
   </g>
   <g id="text_13">
    <text style="fill: #666666; font: 5.8px 'DejaVu Sans', 'Bitstream Vera Sans', 'Computer Modern Sans Serif', 'Lucida Grande', 'Verdana', 'Geneva', 'Lucid', 'Arial', 'Helvetica', 'Avant Garde', sans-serif; text-anchor: middle" x="119.211594" y="135.347181" transform="rotate(-0 119.211594 135.347181)">Measured boundary: routed ECC logic; SRAM-macro internal energy excluded</text>
   </g>
  </g>
 </g>
 <defs>
  <clipPath id="p1742ce56a7">
   <rect x="22.956594" y="7.2" width="192.51" height="130.284"/>
  </clipPath>
 </defs>
</svg>
